<?xml version="1.0" encoding="utf-8" ?><svg xmlns="http://www.w3.org/2000/svg" xmlns:xlink="http://www.w3.org/1999/xlink" width="1024" height="1024" viewBox="0 0 1024 1024"><path fill="white" d="M0 0L1024 0L1024 1024L0 1024L0 0Z"/><path fill="#2827AD" d="M596.8 312.903C645.132 315.394 691.126 353.824 704.341 400.153C707.113 409.87 708.303 418.609 709.65 428.526C702.379 427.917 695.579 428.064 688.392 427.963C639.395 427.272 586.666 441.339 566.476 490.985C557.477 513.115 557.893 527.02 537.539 544.859C522.144 558.35 511.754 559.35 493.15 566.063C482.172 570.025 467.713 579.985 459.404 588.397C424.562 623.673 427.176 666.288 427.42 711.473L427.049 712.107C426.864 712.132 426.678 712.157 426.493 712.182C404.084 710.577 374.05 696.393 358.438 682.608C332.646 659.834 318.544 631.124 315.771 597.783C322.154 597.777 328.536 597.716 334.917 597.602C371.904 597.013 406.567 591.203 434.819 565.065C443.944 556.623 453.852 543.807 458.113 532.28C465.71 511.73 468.181 495.196 485.765 479.732C498.605 467.239 514.138 464.824 529.888 458.728C558.312 447.727 579.119 423.73 588.87 395.362C598.291 367.957 597.498 341.174 596.8 312.903Z"/><path fill="#2827AD" d="M680.316 468.706C689.728 468.281 700.319 468.443 709.819 468.385C710.046 479.159 709.391 500.76 706.762 511.029C700.797 533.476 683.563 551.19 661.288 557.77C653.642 560.105 645.471 560.973 637.652 562.804C615.455 568.001 597.24 578.597 582.276 595.864C572.642 606.948 564.412 623.345 561.609 637.786C557.889 656.95 557.716 671.064 544.299 687.073C531.113 702.807 516.745 709.205 496.521 711.158C488.55 712.254 476.183 712.382 468.162 712.451C468.046 699.906 467.973 687.165 468.222 674.916C468.903 641.439 487.228 611.47 519.985 601.374C525.545 599.661 531.722 598.066 537.301 596.079C552.048 590.725 565.33 581.982 576.078 570.552C583.336 562.826 591.602 549.918 595.006 540.006C600.553 523.858 603.781 507.861 616.149 494.85C634.841 475.186 654.418 469.951 680.316 468.706Z"/><path fill="#2827AD" d="M527.744 313.202C534.46 312.433 549.202 312.911 556.455 312.998C556.589 338.907 557.796 365.125 545.169 388.557C536.171 405.254 522.463 416.776 504.342 422.767C498.045 424.849 491.736 426.231 485.578 428.69C460.368 437.552 440.027 457.271 430.534 482.253C428.241 488.287 426.948 494.657 425.213 500.926C422.058 512.433 416.242 523.037 408.236 531.883C391.466 550.645 368.094 555 344.124 556.258C336.47 556.966 323.807 556.608 315.804 556.56C315.933 543.636 314.721 529.953 317.141 517.424C322.097 491.764 342.71 472.505 367.538 465.963C379.652 462.883 391.465 461.248 403.168 456.515C431.944 444.877 456.263 417.903 462.561 387.193C466.616 367.421 468.074 351.495 482.301 335.451C494.69 321.478 509.344 314.685 527.744 313.202Z"/><path fill="#2827AD" d="M709.831 577.454C710.492 578.471 710.326 578.917 710.329 580.121C710.404 617.756 699.31 649.971 672.14 676.963C652.878 696.099 626.956 707.996 600.141 712.04C592.658 713.169 583.622 713.043 576.01 713.014L575.729 712.787L575.675 712.165C583.168 704.71 587.623 699.934 592.323 690.151C597.285 679.82 598.034 671.474 599.705 660.475C601.902 646.022 608.693 631.355 619.196 621.052C627.427 612.977 637.906 606.068 649.14 602.925C656.523 600.859 663.036 600.575 670.516 599.375C685.771 596.862 699.674 589.11 709.831 577.454Z"/><path fill="#2827AD" d="M444.8 311.758C446.067 311.588 445.48 311.492 446.572 311.977C446.206 313.06 441.238 317.657 439.976 319.17C428.862 332.324 427.197 347.853 424.629 364.132C420.842 390.323 397.763 416.832 371.564 422.281C348.315 427.116 333.749 426.42 315.856 445.512C315.391 446.272 315.721 445.984 314.826 446.325C314.688 445.747 314.53 445.162 314.523 444.558C314.091 408.752 324.909 375.384 350.297 349.469C369.249 330.124 395.291 317.208 421.865 312.973C429.44 311.767 437.203 311.831 444.8 311.758Z"/></svg>